<svg version="1.1" xmlns="http://www.w3.org/2000/svg" xmlns:xlink="http://www.w3.org/1999/xlink" width="102" height="118" viewBox="0 0 102 118"><path stroke="none" fill="#FFFFFF" fill-rule="evenodd" d="M17.02,104.25C17.03,103.84 16.96,83.03 16.86,58.00L16.69,12.50L30.09,12.21C48.46,11.81 65.14,13.33 72.48,16.08C80.76,19.17 87.33,25.90 89.56,33.55C91.97,41.86 91.23,54.85 87.96,61.38C85.23,66.83 79.86,71.89 73.64,74.86L69.50,76.84L74.11,78.90C77.94,80.62 88.93,82.90 93.75,82.98C94.67,82.99 95.00,85.90 95.00,94.14L95.00,105.28L86.32,104.57C67.73,103.06 60.43,100.58 53.43,93.38C50.93,90.80 47.76,86.49 46.40,83.81C45.04,81.12 43.49,79.19 42.96,79.52C42.43,79.85 42.00,85.65 42.00,92.56L42.00,105.00L29.50,105.00C22.62,105.00 17.01,104.66 17.02,104.25ZM60.00,56.16C65.64,52.01 66.38,42.87 61.52,37.23C59.36,34.72 58.49,34.47 50.59,34.15L42.00,33.79L42.00,46.54L42.00,59.29L49.75,58.65C54.87,58.22 58.35,57.37 60.00,56.16Z"/></svg>